<svg width="71" height="69" viewBox="0 0 71 69" fill="none" xmlns="http://www.w3.org/2000/svg">
<ellipse cx="17.4611" cy="44.8436" rx="16.8388" ry="16.8388" fill="url(#paint0_linear)" fill-opacity="0.8"/>
<g filter="url(#filter0_b)">
<path fill-rule="evenodd" clip-rule="evenodd" d="M50.5576 54.1707H58.977C62.0781 54.1707 64.5899 51.659 64.5899 48.5578V12.0739C64.5899 8.97272 62.0781 6.46094 58.977 6.46094L14.0736 6.46094C10.9725 6.46094 8.46069 8.97272 8.46069 12.0739L8.46069 48.5578C8.46069 51.659 10.9725 54.1707 14.0736 54.1707H39.3317" fill="url(#paint1_linear)" fill-opacity="0.8"/>
<path d="M50.5576 54.1707H58.977C62.0781 54.1707 64.5899 51.659 64.5899 48.5578V12.0739C64.5899 8.97272 62.0781 6.46094 58.977 6.46094L14.0736 6.46094C10.9725 6.46094 8.46069 8.97272 8.46069 12.0739L8.46069 48.5578C8.46069 51.659 10.9725 54.1707 14.0736 54.1707H39.3317" stroke="url(#paint2_radial)" stroke-opacity="0.8" stroke-width="1.5" stroke-linecap="round"/>
</g>
<g filter="url(#filter1_b)">
<path fill-rule="evenodd" clip-rule="evenodd" d="M28.106 16.2836H44.9447H28.106Z" fill="url(#paint3_linear)" fill-opacity="0.8"/>
<path d="M28.106 16.2836H44.9447" stroke="url(#paint4_radial)" stroke-opacity="0.8" stroke-width="1.5" stroke-linecap="round"/>
</g>
<g filter="url(#filter2_b)">
<path fill-rule="evenodd" clip-rule="evenodd" d="M53.3643 26.1064H19.6868H53.3643Z" fill="url(#paint5_linear)" fill-opacity="0.8"/>
<path d="M53.3643 26.1064H19.6868" stroke="url(#paint6_radial)" stroke-opacity="0.8" stroke-width="1.5" stroke-linecap="round"/>
</g>
<g filter="url(#filter3_b)">
<path fill-rule="evenodd" clip-rule="evenodd" d="M19.6868 41.5419H28.1061H19.6868Z" fill="url(#paint7_linear)" fill-opacity="0.8"/>
<path d="M19.6868 41.5419H28.1061" stroke="url(#paint8_radial)" stroke-opacity="0.8" stroke-width="1.5" stroke-linecap="round"/>
</g>
<path d="M50.8982 36.9919C54.1861 40.2798 54.1861 45.6107 50.8982 48.8986C47.6102 52.1866 42.2793 52.1866 38.9914 48.8986C35.7034 45.6107 35.7034 40.2798 38.9914 36.9919C42.2793 33.7039 47.6102 33.7039 50.8982 36.9919" stroke="white" stroke-opacity="0.8" stroke-width="1.5" stroke-linecap="round" stroke-linejoin="round"/>
<path d="M50.5579 49.1782V62.5903L44.9449 59.7838L39.332 62.5903V49.1782" stroke="white" stroke-opacity="0.8" stroke-width="1.5" stroke-linecap="round" stroke-linejoin="round"/>
<defs>
<filter id="filter0_b" x="-1.28931" y="-3.28906" width="75.6292" height="67.2098" filterUnits="userSpaceOnUse" color-interpolation-filters="sRGB">
<feFlood flood-opacity="0" result="BackgroundImageFix"/>
<feGaussianBlur in="BackgroundImage" stdDeviation="4.5"/>
<feComposite in2="SourceAlpha" operator="in" result="effect1_backgroundBlur"/>
<feBlend mode="normal" in="SourceGraphic" in2="effect1_backgroundBlur" result="shape"/>
</filter>
<filter id="filter1_b" x="18.356" y="6.53369" width="36.3388" height="19.5" filterUnits="userSpaceOnUse" color-interpolation-filters="sRGB">
<feFlood flood-opacity="0" result="BackgroundImageFix"/>
<feGaussianBlur in="BackgroundImage" stdDeviation="4.5"/>
<feComposite in2="SourceAlpha" operator="in" result="effect1_backgroundBlur"/>
<feBlend mode="normal" in="SourceGraphic" in2="effect1_backgroundBlur" result="shape"/>
</filter>
<filter id="filter2_b" x="9.93677" y="16.3564" width="53.1775" height="19.5" filterUnits="userSpaceOnUse" color-interpolation-filters="sRGB">
<feFlood flood-opacity="0" result="BackgroundImageFix"/>
<feGaussianBlur in="BackgroundImage" stdDeviation="4.5"/>
<feComposite in2="SourceAlpha" operator="in" result="effect1_backgroundBlur"/>
<feBlend mode="normal" in="SourceGraphic" in2="effect1_backgroundBlur" result="shape"/>
</filter>
<filter id="filter3_b" x="9.93677" y="31.792" width="27.9194" height="19.5" filterUnits="userSpaceOnUse" color-interpolation-filters="sRGB">
<feFlood flood-opacity="0" result="BackgroundImageFix"/>
<feGaussianBlur in="BackgroundImage" stdDeviation="4.5"/>
<feComposite in2="SourceAlpha" operator="in" result="effect1_backgroundBlur"/>
<feBlend mode="normal" in="SourceGraphic" in2="effect1_backgroundBlur" result="shape"/>
</filter>
<linearGradient id="paint0_linear" x1="34.2998" y1="53.263" x2="-14.5326" y2="72.6276" gradientUnits="userSpaceOnUse">
<stop stop-color="#41B5D9" stop-opacity="0"/>
<stop offset="1" stop-color="#41B5D9"/>
</linearGradient>
<linearGradient id="paint1_linear" x1="-47.6685" y1="-41.2489" x2="-8.08925" y2="78.244" gradientUnits="userSpaceOnUse">
<stop stop-color="white" stop-opacity="0.4"/>
<stop offset="1" stop-color="white" stop-opacity="0"/>
</linearGradient>
<radialGradient id="paint2_radial" cx="0" cy="0" r="1" gradientUnits="userSpaceOnUse" gradientTransform="translate(36.5253 30.3158) rotate(90) scale(23.8549 21.828)">
<stop stop-color="white"/>
<stop offset="1" stop-color="white" stop-opacity="0.5"/>
</radialGradient>
<linearGradient id="paint3_linear" x1="11.2672" y1="12.0739" x2="11.7717" y2="19.8413" gradientUnits="userSpaceOnUse">
<stop stop-color="white" stop-opacity="0.4"/>
<stop offset="1" stop-color="white" stop-opacity="0"/>
</linearGradient>
<radialGradient id="paint4_radial" cx="0" cy="0" r="1" gradientUnits="userSpaceOnUse" gradientTransform="translate(36.5253 16.2836) rotate(90) scale(1.40323 6.5484)">
<stop stop-color="white"/>
<stop offset="1" stop-color="white" stop-opacity="0.5"/>
</radialGradient>
<linearGradient id="paint5_linear" x1="-13.9907" y1="21.8967" x2="-13.7377" y2="29.6886" gradientUnits="userSpaceOnUse">
<stop stop-color="white" stop-opacity="0.4"/>
<stop offset="1" stop-color="white" stop-opacity="0"/>
</linearGradient>
<radialGradient id="paint6_radial" cx="0" cy="0" r="1" gradientUnits="userSpaceOnUse" gradientTransform="translate(36.5255 26.1064) rotate(90) scale(1.40323 13.0968)">
<stop stop-color="white"/>
<stop offset="1" stop-color="white" stop-opacity="0.5"/>
</radialGradient>
<linearGradient id="paint7_linear" x1="11.2674" y1="37.3322" x2="12.2638" y2="45.0029" gradientUnits="userSpaceOnUse">
<stop stop-color="white" stop-opacity="0.4"/>
<stop offset="1" stop-color="white" stop-opacity="0"/>
</linearGradient>
<radialGradient id="paint8_radial" cx="0" cy="0" r="1" gradientUnits="userSpaceOnUse" gradientTransform="translate(23.8965 41.5419) rotate(90) scale(1.40323 3.2742)">
<stop stop-color="white"/>
<stop offset="1" stop-color="white" stop-opacity="0.5"/>
</radialGradient>
</defs>
</svg>
