<svg width="40" height="40" viewBox="0 0 40 40" fill="none" xmlns="http://www.w3.org/2000/svg">
<circle cx="10" cy="28" r="10" fill="url(#paint0_linear)"/>
<g filter="url(#filter0_b)">
<path fill-rule="evenodd" clip-rule="evenodd" d="M31.6714 11.5632H20.8819C20.3279 11.5635 19.8099 11.2885 19.4997 10.8295L17.1654 7.38978C16.854 6.93268 16.3362 6.65974 15.7831 6.66114H8.32837C6.48666 6.66114 4.99365 8.15415 4.99365 9.99586V30.0042C4.99365 31.8459 6.48666 33.3389 8.32837 33.3389H31.6714C33.5131 33.3389 35.0062 31.8459 35.0062 30.0042V14.8979C35.0062 13.0562 33.5131 11.5632 31.6714 11.5632Z" fill="url(#paint1_linear)"/>
<path fill-rule="evenodd" clip-rule="evenodd" d="M31.6714 11.5632H20.8819C20.3279 11.5635 19.8099 11.2885 19.4997 10.8295L17.1654 7.38978C16.854 6.93268 16.3362 6.65974 15.7831 6.66114H8.32837C6.48666 6.66114 4.99365 8.15415 4.99365 9.99586V30.0042C4.99365 31.8459 6.48666 33.3389 8.32837 33.3389H31.6714C33.5131 33.3389 35.0062 31.8459 35.0062 30.0042V14.8979C35.0062 13.0562 33.5131 11.5632 31.6714 11.5632Z" stroke="url(#paint2_radial)" stroke-width="1.5" stroke-linecap="round"/>
</g>
<g filter="url(#filter1_b)">
<path fill-rule="evenodd" clip-rule="evenodd" d="M4.99365 16.4653H15.7831C16.3345 16.465 16.85 16.1923 17.1604 15.7366L19.4947 12.2935C19.805 11.8368 20.3214 11.5633 20.8736 11.5632" fill="url(#paint3_linear)"/>
<path d="M4.99365 16.4653H15.7831C16.3345 16.465 16.85 16.1923 17.1604 15.7366L19.4947 12.2935C19.805 11.8368 20.3214 11.5633 20.8736 11.5632" stroke="url(#paint4_radial)" stroke-width="1.5" stroke-linecap="round"/>
</g>
<defs>
<filter id="filter0_b" x="-4.75635" y="-3.08887" width="49.5125" height="46.1778" filterUnits="userSpaceOnUse" color-interpolation-filters="sRGB">
<feFlood flood-opacity="0" result="BackgroundImageFix"/>
<feGaussianBlur in="BackgroundImage" stdDeviation="4.5"/>
<feComposite in2="SourceAlpha" operator="in" result="effect1_backgroundBlur"/>
<feBlend mode="normal" in="SourceGraphic" in2="effect1_backgroundBlur" result="shape"/>
</filter>
<filter id="filter1_b" x="-4.75635" y="1.81323" width="35.3799" height="24.402" filterUnits="userSpaceOnUse" color-interpolation-filters="sRGB">
<feFlood flood-opacity="0" result="BackgroundImageFix"/>
<feGaussianBlur in="BackgroundImage" stdDeviation="4.5"/>
<feComposite in2="SourceAlpha" operator="in" result="effect1_backgroundBlur"/>
<feBlend mode="normal" in="SourceGraphic" in2="effect1_backgroundBlur" result="shape"/>
</filter>
<linearGradient id="paint0_linear" x1="21.5" y1="25" x2="-3.5" y2="40.5" gradientUnits="userSpaceOnUse">
<stop stop-color="#41B5D9" stop-opacity="0"/>
<stop offset="1" stop-color="#41B5D9"/>
</linearGradient>
<linearGradient id="paint1_linear" x1="-25.0188" y1="-20.0166" x2="-2.08705" y2="46.1873" gradientUnits="userSpaceOnUse">
<stop stop-color="white" stop-opacity="0.4"/>
<stop offset="1" stop-color="white" stop-opacity="0"/>
</linearGradient>
<radialGradient id="paint2_radial" cx="0" cy="0" r="1" gradientUnits="userSpaceOnUse" gradientTransform="translate(19.9999 20) rotate(90) scale(13.3389 11.6715)">
<stop stop-color="#D0C4EB"/>
<stop offset="1" stop-color="#A089D6" stop-opacity="0.5"/>
</radialGradient>
<linearGradient id="paint3_linear" x1="-10.8863" y1="6.66119" x2="-9.27076" y2="20.0914" gradientUnits="userSpaceOnUse">
<stop stop-color="white" stop-opacity="0.4"/>
<stop offset="1" stop-color="white" stop-opacity="0"/>
</linearGradient>
<radialGradient id="paint4_radial" cx="0" cy="0" r="1" gradientUnits="userSpaceOnUse" gradientTransform="translate(12.9336 14.0143) rotate(90) scale(2.45102 6.17553)">
<stop stop-color="#D0C4EB"/>
<stop offset="1" stop-color="#A089D6" stop-opacity="0.5"/>
</radialGradient>
</defs>
</svg>
