<svg width="40" height="40" viewBox="0 0 40 40" fill="none" xmlns="http://www.w3.org/2000/svg">
<circle cx="10" cy="10" r="10" fill="url(#paint0_linear)"/>
<g filter="url(#filter0_b)">
<path fill-rule="evenodd" clip-rule="evenodd" d="M10.21 23L5.88428 27.4281C5.43304 27.89 5.53139 28.6522 6.08511 28.9844L8.95229 30.7047C9.09304 30.7892 9.21084 30.907 9.29529 31.0477L10.9908 33.8735C11.3307 34.4401 12.1169 34.5271 12.5725 34.0486L18.165 28.175" fill="url(#paint1_linear)"/>
<path d="M10.21 23L5.88428 27.4281C5.43304 27.89 5.53139 28.6522 6.08511 28.9844L8.95229 30.7047C9.09304 30.7892 9.21084 30.907 9.29529 31.0477L10.9908 33.8735C11.3307 34.4401 12.1169 34.5271 12.5725 34.0486L18.165 28.175" stroke="url(#paint2_radial)" stroke-width="1.5" stroke-linecap="round"/>
</g>
<g filter="url(#filter1_b)">
<path fill-rule="evenodd" clip-rule="evenodd" d="M21.835 28.175L27.4275 34.0486C27.8831 34.5271 28.6693 34.4401 29.0092 33.8735L30.7047 31.0477C30.7892 30.907 30.907 30.7892 31.0477 30.7047L33.9149 28.9844C34.4686 28.6522 34.567 27.89 34.1157 27.4281L29.79 23" fill="url(#paint3_linear)"/>
<path d="M21.835 28.175L27.4275 34.0486C27.8831 34.5271 28.6693 34.4401 29.0092 33.8735L30.7047 31.0477C30.7892 30.907 30.907 30.7892 31.0477 30.7047L33.9149 28.9844C34.4686 28.6522 34.567 27.89 34.1157 27.4281L29.79 23" stroke="url(#paint4_radial)" stroke-width="1.5" stroke-linecap="round"/>
</g>
<g filter="url(#filter2_b)">
<path fill-rule="evenodd" clip-rule="evenodd" d="M28.2495 8.41709C32.8056 12.9732 32.8056 20.3601 28.2495 24.9162C23.6934 29.4724 16.3065 29.4724 11.7503 24.9162C7.19422 20.3601 7.19422 12.9732 11.7503 8.41709C16.3065 3.86097 23.6934 3.86097 28.2495 8.41709Z" fill="url(#paint5_linear)"/>
<path d="M28.2495 8.41709C32.8056 12.9732 32.8056 20.3601 28.2495 24.9162C23.6934 29.4724 16.3065 29.4724 11.7503 24.9162C7.19422 20.3601 7.19422 12.9732 11.7503 8.41709C16.3065 3.86097 23.6934 3.86097 28.2495 8.41709" stroke="url(#paint6_radial)" stroke-width="1.5" stroke-linecap="round"/>
</g>
<path fill-rule="evenodd" clip-rule="evenodd" d="M19.9985 20.6483C19.9985 20.6479 19.9989 20.6476 19.9993 20.6478L22.7415 22.058C23.2757 22.333 23.9 21.8891 23.7977 21.3064L23.3665 18.8433C23.3088 18.5141 23.4195 18.1777 23.6615 17.9471L25.4936 16.2004C25.9256 15.7879 25.6875 15.0692 25.0906 14.984L22.5412 14.6213C22.2172 14.5752 21.9363 14.3734 21.789 14.0811L20.6533 11.8266C20.3862 11.2961 19.6153 11.2961 19.3482 11.8266L18.2124 14.0814C18.0652 14.3735 17.7844 14.5752 17.4606 14.6214L14.9094 14.9855C14.3125 15.0707 14.0744 15.7894 14.5064 16.2019L16.3385 17.9486C16.5805 18.1792 16.6912 18.5156 16.6335 18.8448L16.2022 21.3079C16.1 21.8906 16.7243 22.3344 17.2585 22.0595L19.9993 20.65C19.9999 20.6497 19.9997 20.6489 19.999 20.6489V20.6489C19.9987 20.6489 19.9985 20.6486 19.9985 20.6483V20.6483Z" stroke="#5F41D9" stroke-width="1.5" stroke-linecap="round"/>
<defs>
<filter id="filter0_b" x="-11.1506" y="6.25" width="46.0655" height="44.8592" filterUnits="userSpaceOnUse" color-interpolation-filters="sRGB">
<feFlood flood-opacity="0" result="BackgroundImageFix"/>
<feGaussianBlur in="BackgroundImage" stdDeviation="8"/>
<feComposite in2="SourceAlpha" operator="in" result="effect1_backgroundBlur"/>
<feBlend mode="normal" in="SourceGraphic" in2="effect1_backgroundBlur" result="shape"/>
</filter>
<filter id="filter1_b" x="5.08502" y="6.25" width="46.0655" height="44.8592" filterUnits="userSpaceOnUse" color-interpolation-filters="sRGB">
<feFlood flood-opacity="0" result="BackgroundImageFix"/>
<feGaussianBlur in="BackgroundImage" stdDeviation="8"/>
<feComposite in2="SourceAlpha" operator="in" result="effect1_backgroundBlur"/>
<feBlend mode="normal" in="SourceGraphic" in2="effect1_backgroundBlur" result="shape"/>
</filter>
<filter id="filter2_b" x="-1.41675" y="-4.75" width="42.8333" height="42.8333" filterUnits="userSpaceOnUse" color-interpolation-filters="sRGB">
<feFlood flood-opacity="0" result="BackgroundImageFix"/>
<feGaussianBlur in="BackgroundImage" stdDeviation="4.5"/>
<feComposite in2="SourceAlpha" operator="in" result="effect1_backgroundBlur"/>
<feBlend mode="normal" in="SourceGraphic" in2="effect1_backgroundBlur" result="shape"/>
</filter>
<linearGradient id="paint0_linear" x1="10" y1="0" x2="10" y2="20" gradientUnits="userSpaceOnUse">
<stop stop-color="#F5CE67"/>
<stop offset="1" stop-color="#F5CE67" stop-opacity="0"/>
</linearGradient>
<linearGradient id="paint1_linear" x1="-8.165" y1="11" x2="2.3544" y2="40.6158" gradientUnits="userSpaceOnUse">
<stop stop-color="white" stop-opacity="0.4"/>
<stop offset="1" stop-color="white" stop-opacity="0"/>
</linearGradient>
<radialGradient id="paint2_radial" cx="0" cy="0" r="1" gradientUnits="userSpaceOnUse" gradientTransform="translate(11.5825 29) rotate(90) scale(6 5.11972)">
<stop stop-color="#D0C4EB"/>
<stop offset="1" stop-color="#A089D6" stop-opacity="0.5"/>
</radialGradient>
<linearGradient id="paint3_linear" x1="8.67002" y1="11" x2="19.1894" y2="40.6158" gradientUnits="userSpaceOnUse">
<stop stop-color="white" stop-opacity="0.4"/>
<stop offset="1" stop-color="white" stop-opacity="0"/>
</linearGradient>
<radialGradient id="paint4_radial" cx="0" cy="0" r="1" gradientUnits="userSpaceOnUse" gradientTransform="translate(28.4175 29) rotate(90) scale(6 5.11972)">
<stop stop-color="#D0C4EB"/>
<stop offset="1" stop-color="#A089D6" stop-opacity="0.5"/>
</radialGradient>
<linearGradient id="paint5_linear" x1="-15.0001" y1="-18.3333" x2="6.93968" y2="37.9689" gradientUnits="userSpaceOnUse">
<stop stop-color="white" stop-opacity="0.4"/>
<stop offset="1" stop-color="white" stop-opacity="0"/>
</linearGradient>
<radialGradient id="paint6_radial" cx="0" cy="0" r="1" gradientUnits="userSpaceOnUse" gradientTransform="translate(19.9999 16.6667) rotate(90) scale(11.6667 9.07407)">
<stop stop-color="#D0C4EB"/>
<stop offset="1" stop-color="#A089D6" stop-opacity="0.5"/>
</radialGradient>
</defs>
</svg>
