<svg width="83" height="83" viewBox="0 0 83 83" fill="none" xmlns="http://www.w3.org/2000/svg">
<circle cx="20.8945" cy="31.2066" r="20.6241" fill="url(#paint0_linear)" fill-opacity="0.8"/>
<g filter="url(#filter0_b)">
<path fill-rule="evenodd" clip-rule="evenodd" d="M20.8945 17.4574H62.1427Z" fill="url(#paint1_linear)" fill-opacity="0.8"/>
<path d="M20.8945 17.4574H62.1427" stroke="url(#paint2_radial)" stroke-opacity="0.8" stroke-width="1.5" stroke-linecap="round"/>
</g>
<g filter="url(#filter1_b)">
<path fill-rule="evenodd" clip-rule="evenodd" d="M27.769 7.14543L55.2678 7.14543Z" fill="url(#paint3_linear)" fill-opacity="0.8"/>
<path d="M27.769 7.14543L55.2678 7.14543" stroke="url(#paint4_radial)" stroke-opacity="0.8" stroke-width="1.5" stroke-linecap="round"/>
</g>
<g filter="url(#filter2_b)">
<path fill-rule="evenodd" clip-rule="evenodd" d="M68.4672 75.8924H14.5696C10.4688 75.8924 7.1449 72.5685 7.1449 68.4678L7.1449 35.1942C7.1449 31.0934 10.4688 27.7695 14.5696 27.7695H68.4672C72.568 27.7695 75.8919 31.0934 75.8919 35.1942V68.4678C75.8919 72.5685 72.568 75.8924 68.4672 75.8924Z" fill="url(#paint5_linear)" fill-opacity="0.8"/>
<path fill-rule="evenodd" clip-rule="evenodd" d="M68.4672 75.8924H14.5696C10.4688 75.8924 7.1449 72.5685 7.1449 68.4678L7.1449 35.1942C7.1449 31.0934 10.4688 27.7695 14.5696 27.7695H68.4672C72.568 27.7695 75.8919 31.0934 75.8919 35.1942V68.4678C75.8919 72.5685 72.568 75.8924 68.4672 75.8924Z" stroke="url(#paint6_radial)" stroke-opacity="0.8" stroke-width="1.5" stroke-linecap="round"/>
</g>
<path fill-rule="evenodd" clip-rule="evenodd" d="M37.16 41.8818L50.5038 49.774C52.1915 50.7708 52.1915 53.2147 50.5038 54.2116L37.16 62.1037C35.4413 63.1212 33.2689 61.8803 33.2689 59.8832V44.1023C33.2689 42.1052 35.4413 40.8643 37.16 41.8818V41.8818Z" stroke="white" stroke-opacity="0.8" stroke-width="1.5" stroke-linecap="round" stroke-linejoin="round"/>
<defs>
<filter id="filter0_b" x="11.1445" y="7.70752" width="60.7482" height="19.5" filterUnits="userSpaceOnUse" color-interpolation-filters="sRGB">
<feFlood flood-opacity="0" result="BackgroundImageFix"/>
<feGaussianBlur in="BackgroundImage" stdDeviation="4.5"/>
<feComposite in2="SourceAlpha" operator="in" result="effect1_backgroundBlur"/>
<feBlend mode="normal" in="SourceGraphic" in2="effect1_backgroundBlur" result="shape"/>
</filter>
<filter id="filter1_b" x="18.019" y="-2.60449" width="46.9988" height="19.5" filterUnits="userSpaceOnUse" color-interpolation-filters="sRGB">
<feFlood flood-opacity="0" result="BackgroundImageFix"/>
<feGaussianBlur in="BackgroundImage" stdDeviation="4.5"/>
<feComposite in2="SourceAlpha" operator="in" result="effect1_backgroundBlur"/>
<feBlend mode="normal" in="SourceGraphic" in2="effect1_backgroundBlur" result="shape"/>
</filter>
<filter id="filter2_b" x="-2.6051" y="18.0195" width="88.247" height="67.6229" filterUnits="userSpaceOnUse" color-interpolation-filters="sRGB">
<feFlood flood-opacity="0" result="BackgroundImageFix"/>
<feGaussianBlur in="BackgroundImage" stdDeviation="4.5"/>
<feComposite in2="SourceAlpha" operator="in" result="effect1_backgroundBlur"/>
<feBlend mode="normal" in="SourceGraphic" in2="effect1_backgroundBlur" result="shape"/>
</filter>
<linearGradient id="paint0_linear" x1="41.5186" y1="47.7059" x2="-4.88564" y2="10.5825" gradientUnits="userSpaceOnUse">
<stop stop-color="#41B5D9" stop-opacity="0"/>
<stop offset="1" stop-color="#41B5D9"/>
</linearGradient>
<linearGradient id="paint1_linear" x1="-20.3537" y1="12.3014" x2="-20.0438" y2="21.845" gradientUnits="userSpaceOnUse">
<stop stop-color="white" stop-opacity="0.4"/>
<stop offset="1" stop-color="white" stop-opacity="0"/>
</linearGradient>
<radialGradient id="paint2_radial" cx="0" cy="0" r="1" gradientUnits="userSpaceOnUse" gradientTransform="translate(41.5186 17.4574) rotate(90) scale(1.71867 16.041)">
<stop stop-color="white"/>
<stop offset="1" stop-color="white" stop-opacity="0.5"/>
</radialGradient>
<linearGradient id="paint3_linear" x1="0.270247" y1="1.98941" x2="0.7345" y2="11.5204" gradientUnits="userSpaceOnUse">
<stop stop-color="white" stop-opacity="0.4"/>
<stop offset="1" stop-color="white" stop-opacity="0"/>
</linearGradient>
<radialGradient id="paint4_radial" cx="0" cy="0" r="1" gradientUnits="userSpaceOnUse" gradientTransform="translate(41.5184 7.14543) rotate(90) scale(1.71868 10.694)">
<stop stop-color="white"/>
<stop offset="1" stop-color="white" stop-opacity="0.5"/>
</radialGradient>
<linearGradient id="paint5_linear" x1="-61.6021" y1="-20.3534" x2="-27.6449" y2="104.135" gradientUnits="userSpaceOnUse">
<stop stop-color="white" stop-opacity="0.4"/>
<stop offset="1" stop-color="white" stop-opacity="0"/>
</linearGradient>
<radialGradient id="paint6_radial" cx="0" cy="0" r="1" gradientUnits="userSpaceOnUse" gradientTransform="translate(41.5184 51.831) rotate(90) scale(24.0615 26.7349)">
<stop stop-color="white"/>
<stop offset="1" stop-color="white" stop-opacity="0.5"/>
</radialGradient>
</defs>
</svg>
