<svg width="54" height="54" viewBox="0 0 54 54" fill="none" xmlns="http://www.w3.org/2000/svg">
<circle cx="13.5" cy="20.25" r="13.5" fill="url(#paint0_linear)"/>
<g filter="url(#filter0_b)">
<path fill-rule="evenodd" clip-rule="evenodd" d="M13.5 11.25H40.5H13.5Z" fill="url(#paint1_linear)"/>
<path d="M13.5 11.25H40.5" stroke="url(#paint2_radial)" stroke-width="1.5" stroke-linecap="round"/>
</g>
<g filter="url(#filter1_b)">
<path fill-rule="evenodd" clip-rule="evenodd" d="M18 4.5H36H18Z" fill="url(#paint3_linear)"/>
<path d="M18 4.5H36" stroke="url(#paint4_radial)" stroke-width="1.5" stroke-linecap="round"/>
</g>
<g filter="url(#filter2_b)">
<path fill-rule="evenodd" clip-rule="evenodd" d="M44.64 49.5H9.36C6.67575 49.5 4.5 47.3243 4.5 44.64V22.86C4.5 20.1758 6.67575 18 9.36 18H44.64C47.3243 18 49.5 20.1758 49.5 22.86V44.64C49.5 47.3243 47.3243 49.5 44.64 49.5Z" fill="url(#paint5_linear)"/>
<path fill-rule="evenodd" clip-rule="evenodd" d="M44.64 49.5H9.36C6.67575 49.5 4.5 47.3243 4.5 44.64V22.86C4.5 20.1758 6.67575 18 9.36 18H44.64C47.3243 18 49.5 20.1758 49.5 22.86V44.64C49.5 47.3243 47.3243 49.5 44.64 49.5Z" stroke="url(#paint6_radial)" stroke-width="1.5" stroke-linecap="round"/>
</g>
<path fill-rule="evenodd" clip-rule="evenodd" d="M24.147 27.2378L32.8815 32.4038C33.9862 33.0563 33.9862 34.656 32.8815 35.3085L24.147 40.4745C23.022 41.1405 21.6 40.3283 21.6 39.021V28.6913C21.6 27.384 23.022 26.5718 24.147 27.2378V27.2378Z" stroke="white" stroke-width="1.5" stroke-linecap="round" stroke-linejoin="round"/>
<defs>
<filter id="filter0_b" x="3.75" y="1.5" width="46.5" height="19.5" filterUnits="userSpaceOnUse" color-interpolation-filters="sRGB">
<feFlood flood-opacity="0" result="BackgroundImageFix"/>
<feGaussianBlur in="BackgroundImage" stdDeviation="4.5"/>
<feComposite in2="SourceAlpha" operator="in" result="effect1_backgroundBlur"/>
<feBlend mode="normal" in="SourceGraphic" in2="effect1_backgroundBlur" result="shape"/>
</filter>
<filter id="filter1_b" x="8.25" y="-5.25" width="37.5" height="19.5" filterUnits="userSpaceOnUse" color-interpolation-filters="sRGB">
<feFlood flood-opacity="0" result="BackgroundImageFix"/>
<feGaussianBlur in="BackgroundImage" stdDeviation="4.5"/>
<feComposite in2="SourceAlpha" operator="in" result="effect1_backgroundBlur"/>
<feBlend mode="normal" in="SourceGraphic" in2="effect1_backgroundBlur" result="shape"/>
</filter>
<filter id="filter2_b" x="-5.25" y="8.25" width="64.5" height="51" filterUnits="userSpaceOnUse" color-interpolation-filters="sRGB">
<feFlood flood-opacity="0" result="BackgroundImageFix"/>
<feGaussianBlur in="BackgroundImage" stdDeviation="4.5"/>
<feComposite in2="SourceAlpha" operator="in" result="effect1_backgroundBlur"/>
<feBlend mode="normal" in="SourceGraphic" in2="effect1_backgroundBlur" result="shape"/>
</filter>
<linearGradient id="paint0_linear" x1="27" y1="31.05" x2="-3.375" y2="6.75" gradientUnits="userSpaceOnUse">
<stop stop-color="#41B5D9" stop-opacity="0"/>
<stop offset="1" stop-color="#41B5D9"/>
</linearGradient>
<linearGradient id="paint1_linear" x1="-13.5" y1="7.875" x2="-13.2971" y2="14.122" gradientUnits="userSpaceOnUse">
<stop stop-color="white" stop-opacity="0.4"/>
<stop offset="1" stop-color="white" stop-opacity="0"/>
</linearGradient>
<radialGradient id="paint2_radial" cx="0" cy="0" r="1" gradientUnits="userSpaceOnUse" gradientTransform="translate(27 11.25) rotate(90) scale(1.125 10.5)">
<stop stop-color="white"/>
<stop offset="1" stop-color="white" stop-opacity="0.5"/>
</radialGradient>
<linearGradient id="paint3_linear" x1="-1.90735e-06" y1="1.125" x2="0.303887" y2="7.36375" gradientUnits="userSpaceOnUse">
<stop stop-color="white" stop-opacity="0.4"/>
<stop offset="1" stop-color="white" stop-opacity="0"/>
</linearGradient>
<radialGradient id="paint4_radial" cx="0" cy="0" r="1" gradientUnits="userSpaceOnUse" gradientTransform="translate(27 4.5) rotate(90) scale(1.125 7)">
<stop stop-color="white"/>
<stop offset="1" stop-color="white" stop-opacity="0.5"/>
</radialGradient>
<linearGradient id="paint5_linear" x1="-40.5" y1="-13.5" x2="-18.2725" y2="67.9866" gradientUnits="userSpaceOnUse">
<stop stop-color="white" stop-opacity="0.4"/>
<stop offset="1" stop-color="white" stop-opacity="0"/>
</linearGradient>
<radialGradient id="paint6_radial" cx="0" cy="0" r="1" gradientUnits="userSpaceOnUse" gradientTransform="translate(27 33.75) rotate(90) scale(15.75 17.5)">
<stop stop-color="white"/>
<stop offset="1" stop-color="white" stop-opacity="0.5"/>
</radialGradient>
</defs>
</svg>
