<svg width="20" height="20" viewBox="0 0 20 20" fill="none" xmlns="http://www.w3.org/2000/svg">
<path fill-rule="evenodd" clip-rule="evenodd" d="M5 15.4866C6.3075 14.2157 8.07667 13.4341 10.0192 13.4341C11.9425 13.4341 13.6925 14.1999 15 15.4474C13.6925 16.7182 11.9233 17.4999 9.98083 17.4999C8.0575 17.4999 6.3075 16.7341 5 15.4866Z" stroke="#99F3F5" stroke-linecap="round" stroke-linejoin="round"/>
<path d="M3.3125 13.3542C2.80417 12.3425 2.5 11.21 2.5 10C2.5 5.855 5.855 2.5 10 2.5C14.145 2.5 17.5 5.855 17.5 10C17.5 11.2083 17.1975 12.3417 16.6858 13.3525" stroke="#99F3F5" stroke-linecap="round" stroke-linejoin="round"/>
<path d="M11.7678 6.56573C12.7441 7.54204 12.7441 9.12495 11.7678 10.1013C10.7915 11.0776 9.20854 11.0776 8.23223 10.1013C7.25592 9.12495 7.25592 7.54204 8.23223 6.56573C9.20854 5.58942 10.7915 5.58942 11.7678 6.56573" stroke="#99F3F5" stroke-linecap="round" stroke-linejoin="round"/>
</svg>
