<svg width="32" height="32" viewBox="0 0 32 32" fill="none" xmlns="http://www.w3.org/2000/svg">
<path opacity="0.5" d="M17.2533 14.7466L7.82666 24.1732" stroke="#5F41D9" stroke-width="1.5" stroke-linecap="round" stroke-linejoin="round"/>
<path opacity="0.5" d="M8.84406 17.332L4.22673 16.2414C3.71873 16.1214 3.54006 15.4907 3.90806 15.1214L7.58006 11.4494C7.82673 11.2027 8.16139 11.0614 8.51206 11.0587L12.6521 11.0227" stroke="#5F41D9" stroke-width="1.5" stroke-linecap="round" stroke-linejoin="round"/>
<path fill-rule="evenodd" clip-rule="evenodd" d="M26.5053 11.9667L27.5827 6.78274C27.876 5.37207 26.628 4.12407 25.2173 4.41741L20.0333 5.49474C18.5067 5.81207 17.1067 6.56807 16.0053 7.67074L11.752 11.9227C10.1293 13.5454 9.07335 15.6494 8.74001 17.9201L8.72535 18.0174C8.51468 19.4667 9.00001 20.9294 10.0347 21.9654V21.9654C11.0693 23.0001 12.5333 23.4854 13.9827 23.2734L14.08 23.2587C16.3507 22.9267 18.4547 21.8694 20.0773 20.2467L24.3293 15.9947C25.432 14.8934 26.188 13.4934 26.5053 11.9667V11.9667Z" stroke="#5F41D9" stroke-width="1.5" stroke-linecap="round" stroke-linejoin="round"/>
<path d="M17.8667 6.2854C20.948 8.38673 23.6134 11.0521 25.7147 14.1334" stroke="#5F41D9" stroke-width="1.5" stroke-linecap="round" stroke-linejoin="round"/>
<path opacity="0.5" d="M14.6666 23.1559L15.7573 27.7732C15.8773 28.2812 16.508 28.4599 16.8773 28.0919L20.5493 24.4199C20.796 24.1732 20.9373 23.8386 20.94 23.4879L20.976 19.3479" stroke="#5F41D9" stroke-width="1.5" stroke-linecap="round" stroke-linejoin="round"/>
</svg>
