<svg width="40" height="40" viewBox="0 0 40 40" fill="none" xmlns="http://www.w3.org/2000/svg">
<circle opacity="0.75" cx="10" cy="10" r="10" fill="url(#paint0_linear)"/>
<g filter="url(#filter0_b)">
<path fill-rule="evenodd" clip-rule="evenodd" d="M23.0419 31.9643C23.2294 31.7768 23.4837 31.6714 23.749 31.6714H30.0042C32.7668 31.6714 35.0063 29.4319 35.0063 26.6693V9.99574C35.0063 7.23316 32.7668 4.99365 30.0042 4.99365H9.99586C7.23328 4.99365 4.99377 7.23316 4.99377 9.99574V26.6693C4.99377 29.4319 7.23328 31.6714 9.99586 31.6714H16.2511C16.5163 31.6714 16.7707 31.7768 16.9582 31.9643L19.2929 34.299C19.6834 34.6896 20.3166 34.6896 20.7071 34.299L23.0419 31.9643Z" fill="url(#paint1_linear)"/>
<path fill-rule="evenodd" clip-rule="evenodd" d="M23.0419 31.9643C23.2294 31.7768 23.4837 31.6714 23.749 31.6714H30.0042C32.7668 31.6714 35.0063 29.4319 35.0063 26.6693V9.99574C35.0063 7.23316 32.7668 4.99365 30.0042 4.99365H9.99586C7.23328 4.99365 4.99377 7.23316 4.99377 9.99574V26.6693C4.99377 29.4319 7.23328 31.6714 9.99586 31.6714H16.2511C16.5163 31.6714 16.7707 31.7768 16.9582 31.9643L19.2929 34.299C19.6834 34.6896 20.3166 34.6896 20.7071 34.299L23.0419 31.9643Z" stroke="url(#paint2_radial)" stroke-width="1.5" stroke-linecap="round"/>
</g>
<path d="M21.7678 13.2322C22.7441 14.2086 22.7441 15.7915 21.7678 16.7678C20.7915 17.7441 19.2086 17.7441 18.2322 16.7678C17.2559 15.7915 17.2559 14.2086 18.2322 13.2322C19.2086 12.2559 20.7915 12.2559 21.7678 13.2322" stroke="#41D987" stroke-width="1.5" stroke-linecap="round" stroke-linejoin="round"/>
<g filter="url(#filter1_b)">
<path d="M14.2858 23.9284V23.2142C14.2858 21.0527 17.1086 19.6484 20.0001 19.6484C22.8915 19.6484 25.7143 21.0527 25.7143 23.2142V23.9284" stroke="url(#paint3_radial)" stroke-width="1.5" stroke-linecap="round"/>
</g>
<defs>
<filter id="filter0_b" x="-4.75623" y="-4.75635" width="49.5125" height="49.0983" filterUnits="userSpaceOnUse" color-interpolation-filters="sRGB">
<feFlood flood-opacity="0" result="BackgroundImageFix"/>
<feGaussianBlur in="BackgroundImage" stdDeviation="4.5"/>
<feComposite in2="SourceAlpha" operator="in" result="effect1_backgroundBlur"/>
<feBlend mode="normal" in="SourceGraphic" in2="effect1_backgroundBlur" result="shape"/>
</filter>
<filter id="filter1_b" x="-2.46423" y="2.89844" width="44.9286" height="37.78" filterUnits="userSpaceOnUse" color-interpolation-filters="sRGB">
<feFlood flood-opacity="0" result="BackgroundImageFix"/>
<feGaussianBlur in="BackgroundImage" stdDeviation="8"/>
<feComposite in2="SourceAlpha" operator="in" result="effect1_backgroundBlur"/>
<feBlend mode="normal" in="SourceGraphic" in2="effect1_backgroundBlur" result="shape"/>
</filter>
<linearGradient id="paint0_linear" x1="-3.75" y1="9.31322e-09" x2="10" y2="20" gradientUnits="userSpaceOnUse">
<stop stop-color="#41D987"/>
<stop offset="1" stop-color="#41D987" stop-opacity="0"/>
</linearGradient>
<linearGradient id="paint1_linear" x1="-25.0187" y1="-25.0188" x2="3.2013" y2="47.3999" gradientUnits="userSpaceOnUse">
<stop stop-color="white" stop-opacity="0.4"/>
<stop offset="1" stop-color="white" stop-opacity="0"/>
</linearGradient>
<radialGradient id="paint2_radial" cx="0" cy="0" r="1" gradientUnits="userSpaceOnUse" gradientTransform="translate(20 19.9999) rotate(90) scale(15.0063 11.6715)">
<stop stop-color="#D0C4EB"/>
<stop offset="1" stop-color="#A089D6" stop-opacity="0.5"/>
</radialGradient>
<radialGradient id="paint3_radial" cx="0" cy="0" r="1" gradientUnits="userSpaceOnUse" gradientTransform="translate(20.0001 21.7884) rotate(90) scale(2.14 4.44444)">
<stop stop-color="#D0C4EB"/>
<stop offset="1" stop-color="#A089D6" stop-opacity="0.5"/>
</radialGradient>
</defs>
</svg>
