<svg width="16" height="16" viewBox="0 0 16 16" fill="none" xmlns="http://www.w3.org/2000/svg">
<path d="M8 16C12.4183 16 16 12.4183 16 8C16 3.58172 12.4183 0 8 0C3.58172 0 0 3.58172 0 8C0 12.4183 3.58172 16 8 16Z" fill="#6DA544"/>
<path d="M7.99998 3.13037L14.6087 7.99993L7.99998 12.8695L1.3913 7.99993L7.99998 3.13037Z" fill="#FFDA44"/>
<path d="M8 10.7825C9.53679 10.7825 10.7826 9.53666 10.7826 7.99988C10.7826 6.46309 9.53679 5.21729 8 5.21729C6.46322 5.21729 5.21741 6.46309 5.21741 7.99988C5.21741 9.53666 6.46322 10.7825 8 10.7825Z" fill="#F0F0F0"/>
<path d="M6.60873 7.82593C6.12485 7.82593 5.65789 7.89952 5.21832 8.03608C5.23779 9.55608 6.47542 10.7825 8.00004 10.7825C8.94279 10.7825 9.77542 10.3132 10.2788 9.59596C9.4176 8.51793 8.09257 7.82593 6.60873 7.82593Z" fill="#0052B4"/>
<path d="M10.7311 8.533C10.7646 8.36038 10.7826 8.18229 10.7826 7.99988C10.7826 6.46307 9.53684 5.21729 8.00006 5.21729C6.85337 5.21729 5.86899 5.91107 5.44299 6.90163C5.81956 6.8236 6.20943 6.7825 6.60877 6.7825C8.22493 6.78247 9.68699 7.45429 10.7311 8.533Z" fill="#0052B4"/>
</svg>
